<svg width="149" height="59" viewBox="0 0 149 59" fill="none" xmlns="http://www.w3.org/2000/svg">
<path d="M70.7991 21.2746C71.1531 20.9755 71.3682 20.5721 71.4099 20.12C71.4515 19.6679 71.3058 19.2367 71.0073 18.9029C70.7158 18.569 70.3063 18.3673 69.869 18.3325C65.1213 17.797 58.4092 17.6718 48.775 17.9361C50.1493 14.2985 51.1142 12.0102 51.128 11.9685C51.4404 11.0991 51.0309 10.1253 50.1771 9.73584C49.3095 9.4159 48.3308 9.82626 47.956 10.6678L47.9282 10.7235V10.7444C47.8657 10.9252 47.5395 11.7668 47.1022 12.9074C46.6163 14.1802 45.9361 15.9538 45.124 18.0821C42.3892 18.1865 38.1899 18.3743 33.3936 18.7012C33.2409 18.7151 33.1506 18.7151 33.1159 18.722C32.1719 18.8055 31.4917 19.5914 31.5681 20.5165C31.6444 21.4555 32.3663 22.1371 33.2686 22.1371H33.4005L33.4352 22.1232C33.8656 22.0536 38.0302 21.7615 43.826 21.518L43.7635 21.6919C43.2499 23.1804 42.6599 24.8635 42.0422 26.5676C41.2925 28.682 40.5429 30.845 39.8141 32.9942C39.6267 33.1055 39.4601 33.2516 39.3213 33.4254C39.3143 33.4394 38.3634 34.6426 36.989 35.8876C35.2538 37.376 33.5879 38.1968 32.2969 38.1968H32.2483C32.2691 37.8629 32.4149 37.063 33.1367 35.4633C33.81 34.0445 34.6846 32.6465 35.0941 32.097C35.3579 31.7145 35.469 31.2345 35.3857 30.7755C35.3093 30.3304 35.0664 29.9478 34.7054 29.6905C33.9697 29.1758 32.9493 29.3427 32.3802 30.08C32.0053 30.5877 31.3112 31.6658 30.5755 33.029C30.4505 33.1333 30.3464 33.2446 30.2631 33.3629C27.1813 37.7516 25.092 39.3722 23.794 39.9077C23.9606 38.8575 24.3216 37.5221 24.8699 35.9363C25.3072 34.733 25.7445 33.6758 26.0638 32.9038L26.5982 31.6519L26.6121 31.6101C26.8551 30.7129 26.4178 29.8157 25.5987 29.5235C24.745 29.2106 23.8149 29.607 23.447 30.4347C23.447 30.4486 23.3151 30.699 23.1208 31.1441L22.975 31.4015C22.4544 30.9772 21.5937 30.4069 20.4276 30.4069C18.8312 30.4069 17.1584 31.4362 15.7285 33.3003C14.604 34.2879 8.99565 38.9549 3.4289 38.9549H3.38031C3.38031 38.4889 3.51913 37.2717 4.713 35.1434C6.28168 32.3891 8.23907 30.3234 9.52317 29.6001C9.31494 30.1773 8.97482 30.9494 8.57224 31.6936C8.32236 32.09 8.23907 32.5421 8.34319 32.9803C8.4473 33.4115 8.72495 33.7941 9.12753 34.0375C10.0021 34.5105 10.9947 34.2392 11.4459 33.4046C11.6402 33.189 11.9595 32.6604 12.487 31.3876C13.2228 29.5792 13.2991 28.216 12.73 27.2074C12.2441 26.3589 11.425 25.9068 10.363 25.9068C7.80872 25.9068 5.19887 28.5915 3.45666 30.845C1.78386 33.0986 0 36.3814 0 38.8575C0 39.8382 0.291526 40.6798 0.839871 41.2988C1.45069 42.0013 2.31832 42.363 3.43584 42.363C7.10073 42.363 10.6337 40.7772 13.1048 39.3305C13.0909 39.4765 13.0839 39.6226 13.0839 39.7617C13.0839 40.4085 13.2644 41.111 13.5698 41.6396L13.5906 41.6744C14.1182 42.349 14.9233 42.7524 15.7424 42.7524C17.0265 42.7524 18.5466 41.9178 20.3721 40.2068C20.3235 41.118 20.4762 41.8483 20.8163 42.4186L20.8371 42.4464C21.3716 43.1419 22.1143 43.5245 22.9264 43.5245C24.8144 43.5245 26.9314 42.3351 29.2289 39.9912C29.8883 41.0415 30.9434 41.5979 32.2899 41.5979C33.9766 41.5979 35.7674 40.9441 37.6276 39.6504C35.5522 46.237 33.9419 52.0655 32.8452 56.976C32.6231 57.8662 33.1715 58.7565 34.0807 58.9999H34.4764C35.2399 59.0069 35.934 58.4783 36.17 57.6923C38.5161 47.0578 42.8334 34.3018 45.2073 27.6526L45.6446 26.4285C46.2901 24.634 46.9009 22.93 47.5048 21.3511C53.9739 21.1286 62.9695 21.0034 69.5358 21.678C69.987 21.7197 70.4243 21.5737 70.7783 21.2816L70.7991 21.2746ZM16.61 38.9201C16.8321 38.0298 17.3805 36.7779 18.1787 35.6929C18.2689 35.5746 18.3522 35.4633 18.4564 35.3312C18.4772 35.3103 18.498 35.2825 18.498 35.2755C19.3795 34.1975 20.0944 33.8149 20.4415 33.8149C20.5248 33.8149 20.6844 33.8636 20.9204 34.0932L21.0454 34.2809C20.7191 34.7122 20.3374 35.213 19.8932 35.7763C18.2898 37.5916 17.2208 38.4889 16.6031 38.9131L16.61 38.9201Z" fill="#F095BD"/>
<path d="M78.2955 26.1502C78.3857 26.0598 78.4829 25.9764 78.5662 25.8929C81.1621 23.3612 83.8414 20.7391 85.6669 17.4075C86.4998 15.9399 86.6733 14.6045 86.2014 13.443C85.7155 12.0311 84.1676 11.0573 82.5295 11.1199C81.4745 11.1199 80.3223 11.5651 79.2117 12.4067C75.9494 14.8758 74.1586 19.2228 74.2905 24.3349V25.3087C72.2151 27.4509 70.0911 29.7878 68.7376 32.6951C67.9116 34.4131 67.5437 35.9919 67.6201 37.543C67.8283 39.6852 69.0777 41.5492 70.806 42.2795C72.9786 43.2324 75.526 42.5577 77.9623 40.3738C78.462 39.9843 78.9618 39.4974 79.4199 39.0523C80.5374 40.5268 81.7868 41.8413 83.0293 42.8637C83.3902 43.2254 83.8344 43.2671 84.1329 43.2671C84.716 43.2671 85.1533 43.0793 85.4517 42.7038C86.0764 41.9178 85.9723 40.9093 85.2227 40.3112C83.8206 39.1009 82.6267 37.7725 81.6688 36.3606C83.2861 34.1905 84.5702 31.8536 85.8196 29.5861L86.1181 29.0436C86.3402 28.675 86.3957 28.202 86.2777 27.7569C86.1597 27.3187 85.8751 26.9362 85.5003 26.7136L85.4725 26.6997C84.6327 26.3102 83.647 26.6093 83.175 27.4022C82.1339 29.301 81.0164 31.3041 79.7531 33.1403C78.7883 31.1511 78.1428 28.9532 77.8373 26.6023C77.9831 26.4354 78.1428 26.2894 78.3024 26.1433L78.2955 26.1502ZM77.761 21.9006C78.2607 17.79 80.3223 15.8008 81.2315 15.1192C81.7313 14.7367 82.1894 14.535 82.592 14.535H82.6614C82.9113 14.535 83.0709 14.6323 83.0987 14.681C83.0987 14.681 83.1612 14.9453 82.7239 15.773C81.4398 18.1169 79.6628 20.0296 77.761 21.9006ZM77.4903 36.1171C76.9697 36.6944 76.3867 37.2717 75.7967 37.8003C75.4218 38.1342 73.4992 39.7617 72.1387 39.1705C71.5279 38.8923 71.0767 38.1342 71.0281 37.2926C70.9657 36.3814 71.2156 35.3312 71.7708 34.1627C72.4858 32.6812 73.5269 31.1719 74.936 29.5792C75.4496 31.7979 76.3103 33.9958 77.4972 36.1171H77.4903Z" fill="#F095BD"/>
<path d="M36.1631 28.4803C36.7392 28.4803 37.1834 28.2925 37.4819 27.9169C38.0927 27.1588 39.1755 25.6842 39.5225 24.4045C39.6405 23.9733 39.5781 23.5072 39.356 23.1247C39.1338 22.7491 38.7799 22.4848 38.3703 22.3805C37.933 22.2344 37.468 22.2692 37.0723 22.4918C36.6767 22.7074 36.3782 23.0969 36.2672 23.5559C36.1422 24.1054 35.2121 25.3017 34.9067 25.6912C34.3028 26.4563 34.3723 27.4578 35.0594 28.0699C35.3301 28.3412 35.6911 28.4733 36.1631 28.4733V28.4803Z" fill="#F095BD"/>
<path d="M142.792 28.4803C143.368 28.4803 143.812 28.2925 144.111 27.9238C144.722 27.1657 145.798 25.6982 146.152 24.4114C146.27 23.9802 146.214 23.5142 145.992 23.1317C145.77 22.7561 145.416 22.4848 145.006 22.3875C144.569 22.2414 144.104 22.2762 143.708 22.4987C143.313 22.7144 143.014 23.1038 142.896 23.5698C142.82 23.9385 142.362 24.6549 141.543 25.6982C140.932 26.4563 141.001 27.4648 141.695 28.0838C141.973 28.3551 142.334 28.4872 142.799 28.4872L142.792 28.4803Z" fill="#F095BD"/>
<path d="M148.366 33.036L148.352 33.022C147.581 32.4865 146.575 32.6465 145.964 33.4046C145.957 33.4185 144.999 34.6218 143.632 35.8667C141.897 37.3552 140.238 38.1759 138.947 38.1759H138.898C138.919 37.8351 139.065 37.0352 139.787 35.4494C140.46 34.0375 141.334 32.6395 141.751 32.0831C142.015 31.7005 142.126 31.2276 142.042 30.7685C141.966 30.3234 141.723 29.9409 141.355 29.6835C140.619 29.1688 139.599 29.3358 139.03 30.073C138.669 30.5738 137.996 31.6101 137.288 32.8969C137.149 32.9873 137.031 33.0846 136.927 33.1959L136.85 33.2794C136.344 33.8706 131.721 38.9479 126.689 38.9479C126.258 38.9479 125.814 38.9479 125.717 38.0924C127.73 38.5376 129.771 37.849 131.082 36.2771C132.346 34.8095 132.721 32.8203 132.019 31.3389C131.464 30.1495 130.263 29.4331 128.806 29.4331C127.029 29.4331 125.328 30.4834 124.016 32.3891C122.941 34.0027 122.295 35.985 122.295 37.689C122.295 38.9618 122.677 40.1095 123.322 40.8258C123.878 41.5214 124.905 42.349 126.689 42.349C130.18 42.349 133.373 40.6033 135.552 39.0244C135.615 39.3513 135.712 39.6643 135.851 39.9425L135.865 39.9703C136.531 41.0275 137.593 41.584 138.933 41.584C144.021 41.584 148.609 35.4842 148.657 35.4216C149.213 34.6287 149.081 33.6202 148.352 33.036H148.366ZM126.515 34.8095C126.515 34.8095 126.55 34.7469 126.564 34.7191C126.64 34.58 126.716 34.4479 126.8 34.3366H126.807C127.459 33.3768 128.223 32.7856 128.806 32.7856C128.854 32.7856 128.945 32.8064 129.007 32.8203C129.035 33.0707 128.938 33.5854 128.528 34.1001C127.987 34.733 127.306 34.9695 126.515 34.8095Z" fill="#F095BD"/>
<path d="M128.91 6.82854C130.159 3.2744 130.437 2.48151 130.492 2.26589C130.652 1.82771 130.624 1.33389 130.423 0.923528C130.229 0.527078 129.895 0.228002 129.486 0.0958522C129.076 -0.0502083 128.604 -0.0293425 128.195 0.158449C127.785 0.346241 127.459 0.694004 127.313 1.10436L127.293 1.15305V1.16696C127.209 1.43822 126.55 3.32309 125.648 5.88958C123.926 10.7861 121.053 18.9724 118.269 27.1379C117.589 29.1619 116.93 31.1511 116.305 33.0568C116.277 33.0777 116.249 33.0986 116.228 33.1264C116.166 33.182 109.898 38.9618 103.735 38.9618H103.679C103.679 38.4958 103.825 37.2856 105.012 35.1504C106.58 32.3891 108.545 30.3304 109.822 29.607C109.621 30.1843 109.274 30.9494 108.871 31.7005C108.621 32.097 108.538 32.5491 108.642 32.9873C108.746 33.4185 109.024 33.801 109.426 34.0445C110.294 34.5174 111.293 34.2462 111.745 33.4115H111.738C112.085 33.029 112.522 32.0344 112.786 31.3945C113.515 29.5861 113.598 28.2229 113.022 27.2214C112.689 26.6302 112.008 25.9207 110.655 25.9207C108.1 25.9207 105.491 28.6055 103.748 30.859C102.076 33.1125 100.292 36.3953 100.292 38.8714C100.292 39.8521 100.583 40.7006 101.132 41.3127C101.548 41.7996 102.332 42.3769 103.728 42.3769C107.795 42.3769 111.71 40.4642 114.479 38.6767C113.66 41.2362 112.952 43.5175 112.362 45.472C111.509 48.2958 110.939 50.4032 110.627 51.9195C110.044 54.3886 110.023 55.3832 110.537 56.19L110.558 56.2178C110.953 56.6977 111.488 56.969 112.064 56.969C114.014 56.969 116.055 54.9033 117.797 52.8863C118.936 51.5509 119.921 50.1668 120.345 49.5756C120.456 49.4225 120.525 49.3252 120.532 49.3113L120.574 49.2626C121.087 48.5253 120.921 47.5029 120.178 46.9256C119.394 46.3761 118.325 46.55 117.79 47.3151L117.735 47.3916V47.4125C117.554 47.7046 116.548 49.0887 115.305 50.5771C114.854 51.0988 114.459 51.523 114.125 51.8778C115.187 47.6003 117.769 39.3166 121.83 27.2144C124.53 19.3132 127.265 11.5094 128.903 6.84941L128.91 6.82854Z" fill="#F095BD"/>
</svg>
