<svg width="25" height="25" viewBox="0 0 25 25" fill="none" xmlns="http://www.w3.org/2000/svg">
<path d="M12.58 3.12305C12.5889 3.12307 12.5985 3.12309 12.6087 3.12311L12.7194 3.12346C14.0034 3.12818 20.5114 3.17535 22.2661 3.64708C23.3417 3.93559 24.1888 4.78583 24.4763 5.8651C24.6345 6.45807 24.7448 7.24619 24.8217 8.05674L24.8367 8.2191C24.8487 8.35456 24.8599 8.49033 24.8703 8.6256L24.8823 8.78763C24.985 10.2159 24.997 11.5525 24.9984 11.8449L24.9985 11.8844C24.9985 11.8876 24.9985 11.8929 24.9985 11.8929V11.915C24.9985 11.915 24.9985 11.9203 24.9985 11.9235L24.9984 11.963C24.9969 12.2665 24.9841 13.6944 24.8703 15.1824L24.8574 15.3449L24.8438 15.5076C24.7664 16.4022 24.6504 17.2906 24.4763 17.9428C24.1888 19.0221 23.3417 19.8725 22.2661 20.1608C20.4529 20.6485 13.5643 20.6826 12.6087 20.685L12.5352 20.6851C12.5291 20.6851 12.5238 20.6852 12.5192 20.6852L12.4892 20.6852C12.4892 20.6852 12.4823 20.6852 12.4778 20.6852L12.3883 20.685C11.9054 20.6838 9.9072 20.6745 7.81459 20.6026L7.54704 20.5931C7.5024 20.5914 7.45775 20.5898 7.41309 20.5881L7.14524 20.5775L6.878 20.5662C5.1444 20.4901 3.4915 20.3653 2.73114 20.1608C1.65548 19.8725 0.808454 19.0221 0.520966 17.9428C0.3468 17.2906 0.230689 16.4022 0.153282 15.5076L0.13963 15.3449L0.126806 15.1824C0.0170975 13.7485 0.00117215 12.3704 -0.00113959 12.0005L-0.00141584 11.9475C-0.00143523 11.9428 -0.00145138 11.9384 -0.00146484 11.9344V11.8735C-0.00145138 11.8695 -0.00143523 11.8651 -0.00141584 11.8603L-0.00113959 11.8074C0.000954064 11.4724 0.0142139 10.3105 0.0981929 9.02912L0.109063 8.86837C0.110937 8.8415 0.112844 8.81458 0.114782 8.78763L0.126806 8.6256C0.137155 8.49033 0.14834 8.35456 0.160426 8.2191L0.175367 8.05674C0.25228 7.24619 0.362633 6.45807 0.520966 5.8651C0.808454 4.78583 1.65548 3.93559 2.73114 3.64708C3.4915 3.44266 5.1444 3.31797 6.878 3.24191L7.14524 3.23058L7.41309 3.22C7.45775 3.2183 7.5024 3.21663 7.54704 3.21498L7.81459 3.20547C9.77363 3.13822 11.6499 3.12576 12.2777 3.12346L12.3883 3.12311C12.3986 3.12309 12.4081 3.12307 12.417 3.12305H12.58ZM9.99858 8.14054V15.6674L16.4935 11.9042L9.99858 8.14054Z" fill="white"/>
</svg>
